<?xml version="1.0" encoding="UTF-8" standalone="no"?>
<!DOCTYPE svg PUBLIC "-//W3C//DTD SVG 1.0//EN" "http://www.w3.org/TR/2001/PR-SVG-20010719/DTD/svg10.dtd">
<svg width="3cm" height="3cm" viewBox="-2 199 44 42" xmlns="http://www.w3.org/2000/svg" xmlns:xlink="http://www.w3.org/1999/xlink">
  <g>
    <polygon style="fill: #e5e5e5" points="0,208 18.6,208 24.8,214.2 24.8,239 0,239 "/>
    <polygon style="fill: none; fill-opacity:0; stroke-width: 2; stroke: #000000" points="0,208 18.6,208 24.8,214.2 24.8,239 0,239 "/>
    <polyline style="fill: none; fill-opacity:0; stroke-width: 2; stroke: #000000" points="18.6,208 18.6,214.2 24.8,214.2 24.8,214.2 "/>
  </g>
  <g>
    <polygon style="fill: #ffffff" points="16,200 34.6,200 40.8,206.2 40.8,231 16,231 "/>
    <polygon style="fill: none; fill-opacity:0; stroke-width: 2; stroke: #000000" points="16,200 34.6,200 40.8,206.2 40.8,231 16,231 "/>
    <polyline style="fill: none; fill-opacity:0; stroke-width: 2; stroke: #000000" points="34.6,200 34.6,206.2 40.8,206.2 40.8,206.2 "/>
  </g>
  <text font-size="22.5774" style="fill: #000000;text-anchor:start;font-family:sans-serif;font-style:normal;font-weight:normal" x="19.2" y="222.8">
    <tspan x="19.2" y="222.8">+</tspan>
  </text>
</svg>
