<?xml version="1.0" encoding="UTF-8" standalone="no"?>
<!DOCTYPE svg PUBLIC "-//W3C//DTD SVG 1.0//EN" "http://www.w3.org/TR/2001/PR-SVG-20010719/DTD/svg10.dtd">
<svg width="3cm" height="3cm" viewBox="-1 199 43 43" xmlns="http://www.w3.org/2000/svg" xmlns:xlink="http://www.w3.org/1999/xlink">
  <g>
    <path style="fill: #e6e6e6" d="M 35.225 208.487 C 35.225,200.487 35.225,200.487 30.225,200.487 C 25.225,200.487 25.225,200.487 20.225,200.487 C 15.225,200.487 15.225,200.487 15.225,208.487 C 15.225,208.487 0.224986,208.487 0.224986,208.487 C 0.224986,208.487 0.224986,240.487 0.224986,240.487 C 0.224986,240.487 35.225,240.487 35.225,240.487 C 35.225,240.487 35.225,216.487 35.225,208.487z"/>
    <path style="fill: none; fill-opacity:0; stroke-width: 2; stroke: #000000" d="M 35.225 208.487 C 35.225,200.487 35.225,200.487 30.225,200.487 C 25.225,200.487 25.225,200.487 20.225,200.487 C 15.225,200.487 15.225,200.487 15.225,208.487 C 15.225,208.487 0.224986,208.487 0.224986,208.487 C 0.224986,208.487 0.224986,240.487 0.224986,240.487 C 0.224986,240.487 35.225,240.487 35.225,240.487 C 35.225,240.487 35.225,216.487 35.225,208.487"/>
    <path style="fill: none; fill-opacity:0; stroke-width: 0.2; stroke: #000000" d="M 35.225 208.487 C 35.225,200.487 35.225,200.487 30.225,200.487 C 25.225,200.487 25.225,200.487 20.225,200.487 C 15.225,200.487 15.225,200.487 15.225,208.487 C 15.225,208.487 0.224986,208.487 0.224986,208.487 C 0.224986,208.487 0.224986,240.487 0.224986,240.487 C 0.224986,240.487 35.225,240.487 35.225,240.487 C 35.225,240.487 35.225,216.487 35.225,208.487"/>
    <polygon style="fill: #ffffff" points="35.225,240.487 40.225,212.487 5.22499,212.487 0.224986,240.487 "/>
    <polygon style="fill: none; fill-opacity:0; stroke-width: 2; stroke: #000000" points="35.225,240.487 40.225,212.487 5.22499,212.487 0.224986,240.487 "/>
    <polygon style="fill: none; fill-opacity:0; stroke-width: 0.2; stroke: #000000" points="35.225,240.487 40.225,212.487 5.22499,212.487 0.224986,240.487 "/>
    <text font-size="12.7998" style="fill: #000000;text-anchor:middle;font-family:sans-serif;font-style:normal;font-weight:normal" x="20.225" y="226.487">
      <tspan x="20.225" y="226.487"></tspan>
    </text>
  </g>
</svg>
