<svg width="200" height="200" viewBox="1200 1350 4530 4600">
  <g>
    <path fill="white" stroke="none" d="M 2076,1507 C 1728,1507 1380,1707 1380,1908 L 1380,2208 1380,2509 1380,2918 1380,3219 1380,3519 C 1380,3720 1728,3921 2076,3921 L 2598,3921 3120,3921 3831,3921 3490,5809 4875,3921 C 5223,3921 5572,3720 5572,3519 L 5572,3219 5572,2918 5572,2509 5572,2208 5572,1908 C 5572,1707 5223,1507 4875,1507 L 4353,1507 3831,1507 3120,1507 2598,1507 2076,1507 Z"/>
    <path fill="none" stroke="black" stroke-width="150" stroke-linejoin="round" d="M 2076,1507 C 1728,1507 1380,1707 1380,1908 L 1380,2208 1380,2509 1380,2918 1380,3219 1380,3519 C 1380,3720 1728,3921 2076,3921 L 2598,3921 3120,3921 3831,3921 3490,5809 4875,3921 C 5223,3921 5572,3720 5572,3519 L 5572,3219 5572,2918 5572,2509 5572,2208 5572,1908 C 5572,1707 5223,1507 4875,1507 L 4353,1507 3831,1507 3120,1507 2598,1507 2076,1507 Z"/>
  </g>
</svg>