<svg width="200" height="200" viewBox="-18.5 -18.5 37 37" >
  <g>
    <path d="m 12.41817,-2.31945 0.48717,-0.09099 2.12448,0.43173 2.65393,1.69099 v 0.57544 l -2.65393,1.69099 -2.12448,0.43173 -0.48717,-0.09099 -0.504,1.88093 0.4674,0.16478 1.62399,1.43613 L 15.45844,8.5927 15.17072,9.09105 12.02685,9.22852 9.97113,8.54018 9.59472,8.21779 8.21779,9.59472 8.54018,9.97113 9.22852,12.02685 9.09105,15.17072 8.5927,15.45844 5.80129,14.00556 4.36516,12.38157 l -0.16478,-0.4674 -1.88093,0.504 0.09099,0.48717 -0.43173,2.12448 -1.69099,2.65393 h -0.57544 l -1.69099,-2.65393 -0.43173,-2.12448 0.09099,-0.48717 -1.88093,-0.504 -0.16478,0.4674 -1.43613,1.62399 -2.79141,1.45288 -0.49835,-0.28772 -0.13747,-3.14387 0.68834,-2.05572 0.32239,-0.37641 -1.37693,-1.37693 -0.37641,0.32239 -2.05572,0.68834 -3.14387,-0.13747 -0.28772,-0.49835 1.45288,-2.79141 1.62399,-1.43613 0.4674,-0.16478 -0.504,-1.88093 -0.48717,0.09099 -2.12448,-0.43173 -2.65393,-1.69099 v -0.57544 l 2.65393,-1.69099 2.12448,-0.43173 0.48717,0.09099 0.504,-1.88093 -0.4674,-0.16478 -1.62399,-1.43613 -1.45288,-2.79141 0.28772,-0.49835 3.14387,-0.13747 2.05572,0.68834 0.37641,0.32239 1.37693,-1.37693 -0.32239,-0.37641 -0.68834,-2.05572 0.13747,-3.14387 0.49835,-0.28772 2.79141,1.45288 1.43613,1.62399 0.16478,0.4674 1.88093,-0.504 -0.09099,-0.48717 0.43173,-2.12448 1.69099,-2.65393 h 0.57544 l 1.69099,2.65393 0.43173,2.12448 -0.09099,0.48717 1.88093,0.504 0.16478,-0.4674 1.43613,-1.62399 2.79141,-1.45288 0.49835,0.28772 0.13747,3.14387 -0.68834,2.05572 -0.32239,0.37641 1.37693,1.37693 0.37641,-0.32239 2.05572,-0.68834 3.14387,0.13747 0.28772,0.49835 -1.45288,2.79141 -1.62399,1.43613 -0.4674,0.16478 z" stroke="black" stroke-width="1.2" fill="black" />
    <circle cx="0" cy="0" r="10" stroke="none" fill="white" />
  </g>
</svg>
