<svg width="200" height="200" viewBox="-1 199 43 43">
  <g>
    <path d="M 35.225 208.487 C 35.225,200.487 35.225,200.487 30.225,200.487 C 25.225,200.487 25.225,200.487 20.225,200.487 C 15.225,200.487 15.225,200.487 15.225,208.487 C 15.225,208.487 0.224986,208.487 0.224986,208.487 C 0.224986,208.487 0.224986,240.487 0.224986,240.487 C 0.224986,240.487 35.225,240.487 35.225,240.487 C 35.225,240.487 35.225,216.487 35.225,208.487z" fill="#e6e6e6"/>
    <path d="M 35.225 208.487 C 35.225,200.487 35.225,200.487 30.225,200.487 C 25.225,200.487 25.225,200.487 20.225,200.487 C 15.225,200.487 15.225,200.487 15.225,208.487 C 15.225,208.487 0.224986,208.487 0.224986,208.487 C 0.224986,208.487 0.224986,240.487 0.224986,240.487 C 0.224986,240.487 35.225,240.487 35.225,240.487 C 35.225,240.487 35.225,216.487 35.225,208.487" stroke="black" stroke-width="2" fill="none"/>
    <polygon points="35.225,240.487 40.225,212.487 5.22499,212.487 0.224986,240.487" fill="white"/>
    <polygon points="35.225,240.487 40.225,212.487 5.22499,212.487 0.224986,240.487" stroke="black" stroke-width="2" fill="none"/>
  </g>
</svg>