<svg height="200" width="200" viewBox="0 0 93 93" >
  <g transform="translate(0,-204)">
    <rect x="4.5" y="227" height="47.5" width="84.5" stroke="black" fill="#ebff9b" />
    <path
       d="m 15.017077,226.97929 c 0,47.625 0,47.625 0,47.625" stroke="black" />
    <path
       d="m 78.517073,226.97929 c 0,47.625 0,47.625 0,47.625" stroke="black" />
    <path
       d="M 4.96291,226.97928 H 0.99416 v -2.64583 h 6.614584 v -18.52083 h 3.968749 v 18.52083 h 6.614583 v 2.64583 H 4.96291" stroke="black" fill="#b79239" />
    <path
       d="m 79.046403,226.97928 h -3.96877 v -2.64583 h 6.61462 v -18.52083 h 3.96877 v 18.52083 h 6.61463 v 2.64583 h -13.22925"
       stroke="black" fill="#b79239" />
    <path
       d="M 4.96275,274.60434 H 0.994 v 2.64583 H 7.608584 V 295.771 h 3.968749 v -18.52083 h 6.614583 v -2.64583 H 4.96275"
       stroke="black" fill="#b79239" />
    <path
       d="m 79.046243,274.60434 h -3.96877 v 2.64583 h 6.61463 V 295.771 h 3.96876 v -18.52083 h 6.61464 v -2.64583 h -13.22926"
       stroke="black" fill="#b79239" />
    <text x="23" y="268" font-family="Times New Roman" font-size="64px">וב</text>
  </g>
</svg>
