<svg width="200" height="200" version="1.1" viewBox="0 0 93 93" xmlns="http://www.w3.org/2000/svg">
  <g stroke="#000">
    <rect x="4.5" y="23" width="84.5" height="47.5" fill="#ebff9b"/>
    <path d="m15.017 22.979v47.625"/>
    <path d="m78.517 22.979v47.625"/>
  </g>
  <g fill="#b79239" stroke="#000">
    <path d="m4.9629 22.979h-3.9688v-2.6458h6.6146v-18.521h3.9687v18.521h6.6146v2.6458h-13.229"/>
    <path d="m79.046 22.979h-3.9688v-2.6458h6.6146v-18.521h3.9688v18.521h6.6146v2.6458h-13.229"/>
    <path d="m4.9628 70.604h-3.9688v2.6458h6.6146v18.521h3.9687v-18.521h6.6146v-2.6458h-13.229"/>
    <path d="m79.046 70.604h-3.9688v2.6458h6.6146v18.521h3.9688v-18.521h6.6146v-2.6458h-13.229"/>
  </g>
  <g aria-label="וב">
    <path d="m64.188 64.594-0.6875-0.21875v-21.594q0-2.25-0.71875-3.3125-0.6875-1.0938-3.8125-1.5938-4.75-0.78125-4.75-4.75 0-2.875 1.8125-4.5938h0.84375q0.25 1.9375 2.5938 2.3438l2.625 0.40625q2.1875 0.34375 3.1875 1.6875 1.0312 1.3438 1.0312 5.3438v22.406q0 2.7812-2.125 3.875z"/>
    <path d="m49.562 64h-24.969l1.2188-6.375h18.688q0.78125-4.0625 0.78125-10.031 0-5.75-1-7.7188-0.96875-2-5.5625-2h-8.5q-4.6562 0-4.6562-3.9375 0-2.9062 1.9062-5.125h0.8125q0.5 2.1875 3.125 2.1875h5.9688q5.4062 0 7.4688 1.1875 2.0938 1.1875 2.7188 3.1875 0.65625 2 0.65625 6.9688v4.4062q0 7.25-2.7188 10.875h5.25z"/>
  </g>
</svg>
